<?xml version="1.0" encoding="UTF-8" standalone="no"?>
<svg
   xmlns:dc="http://purl.org/dc/elements/1.1/"
   xmlns:cc="http://creativecommons.org/ns#"
   xmlns:rdf="http://www.w3.org/1999/02/22-rdf-syntax-ns#"
   xmlns:svg="http://www.w3.org/2000/svg"
   xmlns="http://www.w3.org/2000/svg"
   height="60"
   width="100"
   version="1.0"
   viewBox="0 0 100 60"
   id="svg6800">
  <defs
     id="defs91" />
  <g
     transform="translate(0.5,-140.5)"
     id="layer4">
    <rect
       x="-0.32321528"
       y="195.19499"
       width="99.408615"
       height="4.7689557"
       style="fill:#bf0a30;fill-rule:evenodd;stroke-width:0.27960446"
       id="rect8767" />
    <rect
       x="-0.32321528"
       y="190.42603"
       width="99.408615"
       height="4.7689557"
       style="fill:#ffffff;fill-rule:evenodd;stroke-width:0.27960446"
       id="rect8769" />
    <rect
       x="-0.32321528"
       y="185.65707"
       width="99.408615"
       height="4.7689557"
       style="fill:#bf0a30;fill-rule:evenodd;stroke-width:0.27960446"
       id="rect8771" />
    <rect
       x="-0.32321528"
       y="180.88812"
       width="99.408615"
       height="4.7689557"
       style="fill:#ffffff;fill-rule:evenodd;stroke-width:0.27960446"
       id="rect8773" />
    <rect
       x="-0.32321528"
       y="176.41724"
       width="99.408615"
       height="4.4708962"
       style="fill:#bf0a30;fill-rule:evenodd;stroke-width:0.27960446"
       id="rect8775" />
    <rect
       x="-0.32321528"
       y="171.94632"
       width="99.408615"
       height="4.4708962"
       style="fill:#ffffff;fill-rule:evenodd;stroke-width:0.27960446"
       id="rect8777" />
    <rect
       x="-0.32321528"
       y="167.47543"
       width="99.408615"
       height="4.4708962"
       style="fill:#bf0a30;fill-rule:evenodd;stroke-width:0.27960446"
       id="rect8779" />
    <rect
       x="-0.32321528"
       y="163.00455"
       width="99.408615"
       height="4.4708962"
       style="fill:#ffffff;fill-rule:evenodd;stroke-width:0.27960446"
       id="rect8781" />
    <rect
       x="-0.32321528"
       y="158.53365"
       width="99.408615"
       height="4.4708962"
       style="fill:#bf0a30;fill-rule:evenodd;stroke-width:0.27960446"
       id="rect8783" />
    <rect
       x="-0.32321528"
       y="154.06274"
       width="99.408615"
       height="4.4708962"
       style="fill:#ffffff;fill-rule:evenodd;stroke-width:0.27960446"
       id="rect8785" />
    <rect
       x="-0.32321528"
       y="149.59184"
       width="99.408615"
       height="4.4708962"
       style="fill:#bf0a30;fill-rule:evenodd;stroke-width:0.27960446"
       id="rect8787" />
    <rect
       x="-0.32321528"
       y="145.12096"
       width="99.408615"
       height="4.4708962"
       style="fill:#ffffff;fill-rule:evenodd;stroke-width:0.27960446"
       id="rect8791" />
    <rect
       x="-0.32321528"
       y="140.65007"
       width="99.408615"
       height="4.4708962"
       style="fill:#bf0a30;fill-rule:evenodd;stroke-width:0.27960446"
       id="rect8793" />
  </g>
  <g
     transform="translate(0.5,-140.5)"
     id="layer5">
    <rect
       x="-0.32321528"
       y="140.65007"
       width="39.868362"
       height="31.29627"
       style="fill:#002868;fill-rule:evenodd;stroke-width:0.27960446"
       id="rect8796" />
  </g>
  <g
     transform="translate(0.5,-140.5)"
     id="layer6">
    <path
       d="m 100.33333,146.66667 4.13886,-0.77244 1.27511,-4.01259 2.01361,3.69759 4.21023,-0.0273 -2.89438,3.05767 1.32696,3.99575 -3.80244,-1.80785 -3.39013,2.49677 0.54435,-4.17499 z"
       transform="matrix(0.27506548,0.02681078,-0.02253874,0.32718016,-22.949299,117.57695)"
       style="fill:#ffffff;fill-rule:evenodd"
       id="path8825" />
    <path
       d="m 100.33333,146.66667 4.13886,-0.77244 1.27511,-4.01259 2.01361,3.69759 4.21023,-0.0273 -2.89438,3.05767 1.32696,3.99575 -3.80244,-1.80785 -3.39013,2.49677 0.54435,-4.17499 z"
       transform="matrix(0.27506548,0.02681078,-0.02253874,0.32718016,-16.392002,117.57695)"
       style="fill:#ffffff;fill-rule:evenodd"
       id="path8827" />
    <path
       d="m 100.33333,146.66667 4.13886,-0.77244 1.27511,-4.01259 2.01361,3.69759 4.21023,-0.0273 -2.89438,3.05767 1.32696,3.99575 -3.80244,-1.80785 -3.39013,2.49677 0.54435,-4.17499 z"
       transform="matrix(0.27506548,0.02681078,-0.02253874,0.32718016,-9.5724135,117.57695)"
       style="fill:#ffffff;fill-rule:evenodd"
       id="path8829" />
    <path
       d="m 100.33333,146.66667 4.13886,-0.77244 1.27511,-4.01259 2.01361,3.69759 4.21023,-0.0273 -2.89438,3.05767 1.32696,3.99575 -3.80244,-1.80785 -3.39013,2.49677 0.54435,-4.17499 z"
       transform="matrix(0.27506548,0.02681078,-0.02253874,0.32718016,-3.0151167,117.57695)"
       style="fill:#ffffff;fill-rule:evenodd"
       id="path8831" />
    <path
       d="m 100.33333,146.66667 4.13886,-0.77244 1.27511,-4.01259 2.01361,3.69759 4.21023,-0.0273 -2.89438,3.05767 1.32696,3.99575 -3.80244,-1.80785 -3.39013,2.49677 0.54435,-4.17499 z"
       transform="matrix(0.27506548,0.02681078,-0.02253874,0.32718016,3.54218,117.57695)"
       style="fill:#ffffff;fill-rule:evenodd"
       id="path8833" />
    <path
       d="m 100.33333,146.66667 4.13886,-0.77244 1.27511,-4.01259 2.01361,3.69759 4.21023,-0.0273 -2.89438,3.05767 1.32696,3.99575 -3.80244,-1.80785 -3.39013,2.49677 0.54435,-4.17499 z"
       transform="matrix(0.27506548,0.02681078,-0.02253874,0.32718016,10.361769,117.57695)"
       style="fill:#ffffff;fill-rule:evenodd"
       id="path8835" />
    <path
       d="m 100.33333,146.66667 4.13886,-0.77244 1.27511,-4.01259 2.01361,3.69759 4.21023,-0.0273 -2.89438,3.05767 1.32696,3.99575 -3.80244,-1.80785 -3.39013,2.49677 0.54435,-4.17499 z"
       transform="matrix(0.27506548,0.02681078,-0.02253874,0.32718016,-19.539504,114.59635)"
       style="fill:#ffffff;fill-rule:evenodd"
       id="path8837" />
    <path
       d="m 100.33333,146.66667 4.13886,-0.77244 1.27511,-4.01259 2.01361,3.69759 4.21023,-0.0273 -2.89438,3.05767 1.32696,3.99575 -3.80244,-1.80785 -3.39013,2.49677 0.54435,-4.17499 z"
       transform="matrix(0.27506548,0.02681078,-0.02253874,0.32718016,-22.949299,111.3177)"
       style="fill:#ffffff;fill-rule:evenodd"
       id="path8839" />
    <path
       d="m 100.33333,146.66667 4.13886,-0.77244 1.27511,-4.01259 2.01361,3.69759 4.21023,-0.0273 -2.89438,3.05767 1.32696,3.99575 -3.80244,-1.80785 -3.39013,2.49677 0.54435,-4.17499 z"
       transform="matrix(0.27506548,0.02681078,-0.02253874,0.32718016,-19.539504,108.33739)"
       style="fill:#ffffff;fill-rule:evenodd"
       id="path8841" />
    <path
       d="m 100.33333,146.66667 4.13886,-0.77244 1.27511,-4.01259 2.01361,3.69759 4.21023,-0.0273 -2.89438,3.05767 1.32696,3.99575 -3.80244,-1.80785 -3.39013,2.49677 0.54435,-4.17499 z"
       transform="matrix(0.27506548,0.02681078,-0.02253874,0.32718016,-22.949299,105.05874)"
       style="fill:#ffffff;fill-rule:evenodd"
       id="path8843" />
    <path
       d="m 100.33333,146.66667 4.13886,-0.77244 1.27511,-4.01259 2.01361,3.69759 4.21023,-0.0273 -2.89438,3.05767 1.32696,3.99575 -3.80244,-1.80785 -3.39013,2.49677 0.54435,-4.17499 z"
       transform="matrix(0.27506548,0.02681078,-0.02253874,0.32718016,-19.539504,102.07815)"
       style="fill:#ffffff;fill-rule:evenodd"
       id="path8845" />
    <path
       d="m 100.33333,146.66667 4.13886,-0.77244 1.27511,-4.01259 2.01361,3.69759 4.21023,-0.0273 -2.89438,3.05767 1.32696,3.99575 -3.80244,-1.80785 -3.39013,2.49677 0.54435,-4.17499 z"
       transform="matrix(0.27506548,0.02681078,-0.02253874,0.32718016,-22.949299,98.79948)"
       style="fill:#ffffff;fill-rule:evenodd"
       id="path8847" />
    <path
       d="m 100.33333,146.66667 4.13886,-0.77244 1.27511,-4.01259 2.01361,3.69759 4.21023,-0.0273 -2.89438,3.05767 1.32696,3.99575 -3.80244,-1.80785 -3.39013,2.49677 0.54435,-4.17499 z"
       transform="matrix(0.27506548,0.02681078,-0.02253874,0.32718016,-19.539504,95.818893)"
       style="fill:#ffffff;fill-rule:evenodd"
       id="path8849" />
    <path
       d="m 100.33333,146.66667 4.13886,-0.77244 1.27511,-4.01259 2.01361,3.69759 4.21023,-0.0273 -2.89438,3.05767 1.32696,3.99575 -3.80244,-1.80785 -3.39013,2.49677 0.54435,-4.17499 z"
       transform="matrix(0.27506548,0.02681078,-0.02253874,0.32718016,-22.949299,92.540236)"
       style="fill:#ffffff;fill-rule:evenodd"
       id="path8851" />
    <path
       d="m 100.33333,146.66667 4.13886,-0.77244 1.27511,-4.01259 2.01361,3.69759 4.21023,-0.0273 -2.89438,3.05767 1.32696,3.99575 -3.80244,-1.80785 -3.39013,2.49677 0.54435,-4.17499 z"
       transform="matrix(0.27506548,0.02681078,-0.02253874,0.32718016,-12.982208,114.59635)"
       style="fill:#ffffff;fill-rule:evenodd"
       id="path8853" />
    <path
       d="m 100.33333,146.66667 4.13886,-0.77244 1.27511,-4.01259 2.01361,3.69759 4.21023,-0.0273 -2.89438,3.05767 1.32696,3.99575 -3.80244,-1.80785 -3.39013,2.49677 0.54435,-4.17499 z"
       transform="matrix(0.27506548,0.02681078,-0.02253874,0.32718016,-16.392002,111.3177)"
       style="fill:#ffffff;fill-rule:evenodd"
       id="path8855" />
    <path
       d="m 100.33333,146.66667 4.13886,-0.77244 1.27511,-4.01259 2.01361,3.69759 4.21023,-0.0273 -2.89438,3.05767 1.32696,3.99575 -3.80244,-1.80785 -3.39013,2.49677 0.54435,-4.17499 z"
       transform="matrix(0.27506548,0.02681078,-0.02253874,0.32718016,-12.982208,108.33739)"
       style="fill:#ffffff;fill-rule:evenodd"
       id="path8857" />
    <path
       d="m 100.33333,146.66667 4.13886,-0.77244 1.27511,-4.01259 2.01361,3.69759 4.21023,-0.0273 -2.89438,3.05767 1.32696,3.99575 -3.80244,-1.80785 -3.39013,2.49677 0.54435,-4.17499 z"
       transform="matrix(0.27506548,0.02681078,-0.02253874,0.32718016,-16.392002,105.05874)"
       style="fill:#ffffff;fill-rule:evenodd"
       id="path8859" />
    <path
       d="m 100.33333,146.66667 4.13886,-0.77244 1.27511,-4.01259 2.01361,3.69759 4.21023,-0.0273 -2.89438,3.05767 1.32696,3.99575 -3.80244,-1.80785 -3.39013,2.49677 0.54435,-4.17499 z"
       transform="matrix(0.27506548,0.02681078,-0.02253874,0.32718016,-12.982208,102.07815)"
       style="fill:#ffffff;fill-rule:evenodd"
       id="path8861" />
    <path
       d="m 100.33333,146.66667 4.13886,-0.77244 1.27511,-4.01259 2.01361,3.69759 4.21023,-0.0273 -2.89438,3.05767 1.32696,3.99575 -3.80244,-1.80785 -3.39013,2.49677 0.54435,-4.17499 z"
       transform="matrix(0.27506548,0.02681078,-0.02253874,0.32718016,-16.392002,98.79948)"
       style="fill:#ffffff;fill-rule:evenodd"
       id="path8863" />
    <path
       d="m 100.33333,146.66667 4.13886,-0.77244 1.27511,-4.01259 2.01361,3.69759 4.21023,-0.0273 -2.89438,3.05767 1.32696,3.99575 -3.80244,-1.80785 -3.39013,2.49677 0.54435,-4.17499 z"
       transform="matrix(0.27506548,0.02681078,-0.02253874,0.32718016,-12.982208,95.818893)"
       style="fill:#ffffff;fill-rule:evenodd"
       id="path8865" />
    <path
       d="m 100.33333,146.66667 4.13886,-0.77244 1.27511,-4.01259 2.01361,3.69759 4.21023,-0.0273 -2.89438,3.05767 1.32696,3.99575 -3.80244,-1.80785 -3.39013,2.49677 0.54435,-4.17499 z"
       transform="matrix(0.27506548,0.02681078,-0.02253874,0.32718016,-16.392002,92.540236)"
       style="fill:#ffffff;fill-rule:evenodd"
       id="path8867" />
    <path
       d="m 100.33333,146.66667 4.13886,-0.77244 1.27511,-4.01259 2.01361,3.69759 4.21023,-0.0273 -2.89438,3.05767 1.32696,3.99575 -3.80244,-1.80785 -3.39013,2.49677 0.54435,-4.17499 z"
       transform="matrix(0.27506548,0.02681078,-0.02253874,0.32718016,-6.424911,114.59635)"
       style="fill:#ffffff;fill-rule:evenodd"
       id="path8869" />
    <path
       d="m 100.33333,146.66667 4.13886,-0.77244 1.27511,-4.01259 2.01361,3.69759 4.21023,-0.0273 -2.89438,3.05767 1.32696,3.99575 -3.80244,-1.80785 -3.39013,2.49677 0.54435,-4.17499 z"
       transform="matrix(0.27506548,0.02681078,-0.02253874,0.32718016,-9.5724135,111.3177)"
       style="fill:#ffffff;fill-rule:evenodd"
       id="path8871" />
    <path
       d="m 100.33333,146.66667 4.13886,-0.77244 1.27511,-4.01259 2.01361,3.69759 4.21023,-0.0273 -2.89438,3.05767 1.32696,3.99575 -3.80244,-1.80785 -3.39013,2.49677 0.54435,-4.17499 z"
       transform="matrix(0.27506548,0.02681078,-0.02253874,0.32718016,3.54218,111.3177)"
       style="fill:#ffffff;fill-rule:evenodd"
       id="path8873" />
    <path
       d="m 100.33333,146.66667 4.13886,-0.77244 1.27511,-4.01259 2.01361,3.69759 4.21023,-0.0273 -2.89438,3.05767 1.32696,3.99575 -3.80244,-1.80785 -3.39013,2.49677 0.54435,-4.17499 z"
       transform="matrix(0.27506548,0.02681078,-0.02253874,0.32718016,-3.0151167,111.3177)"
       style="fill:#ffffff;fill-rule:evenodd"
       id="path8875" />
    <path
       d="m 100.33333,146.66667 4.13886,-0.77244 1.27511,-4.01259 2.01361,3.69759 4.21023,-0.0273 -2.89438,3.05767 1.32696,3.99575 -3.80244,-1.80785 -3.39013,2.49677 0.54435,-4.17499 z"
       transform="matrix(0.27506548,0.02681078,-0.02253874,0.32718016,6.9519743,114.59635)"
       style="fill:#ffffff;fill-rule:evenodd"
       id="path8877" />
    <path
       d="m 100.33333,146.66667 4.13886,-0.77244 1.27511,-4.01259 2.01361,3.69759 4.21023,-0.0273 -2.89438,3.05767 1.32696,3.99575 -3.80244,-1.80785 -3.39013,2.49677 0.54435,-4.17499 z"
       transform="matrix(0.27506548,0.02681078,-0.02253874,0.32718016,0.39457265,114.59635)"
       style="fill:#ffffff;fill-rule:evenodd"
       id="path8879" />
    <path
       d="m 100.33333,146.66667 4.13886,-0.77244 1.27511,-4.01259 2.01361,3.69759 4.21023,-0.0273 -2.89438,3.05767 1.32696,3.99575 -3.80244,-1.80785 -3.39013,2.49677 0.54435,-4.17499 z"
       transform="matrix(0.27506548,0.02681078,-0.02253874,0.32718016,-9.5724135,92.540236)"
       style="fill:#ffffff;fill-rule:evenodd"
       id="path8881" />
    <path
       d="m 100.33333,146.66667 4.13886,-0.77244 1.27511,-4.01259 2.01361,3.69759 4.21023,-0.0273 -2.89438,3.05767 1.32696,3.99575 -3.80244,-1.80785 -3.39013,2.49677 0.54435,-4.17499 z"
       transform="matrix(0.27506548,0.02681078,-0.02253874,0.32718016,-6.424911,95.818893)"
       style="fill:#ffffff;fill-rule:evenodd"
       id="path8883" />
    <path
       d="m 100.33333,146.66667 4.13886,-0.77244 1.27511,-4.01259 2.01361,3.69759 4.21023,-0.0273 -2.89438,3.05767 1.32696,3.99575 -3.80244,-1.80785 -3.39013,2.49677 0.54435,-4.17499 z"
       transform="matrix(0.27506548,0.02681078,-0.02253874,0.32718016,-9.5724135,98.79948)"
       style="fill:#ffffff;fill-rule:evenodd"
       id="path8885" />
    <path
       d="m 100.33333,146.66667 4.13886,-0.77244 1.27511,-4.01259 2.01361,3.69759 4.21023,-0.0273 -2.89438,3.05767 1.32696,3.99575 -3.80244,-1.80785 -3.39013,2.49677 0.54435,-4.17499 z"
       transform="matrix(0.27506548,0.02681078,-0.02253874,0.32718016,-6.424911,102.07815)"
       style="fill:#ffffff;fill-rule:evenodd"
       id="path8887" />
    <path
       d="m 100.33333,146.66667 4.13886,-0.77244 1.27511,-4.01259 2.01361,3.69759 4.21023,-0.0273 -2.89438,3.05767 1.32696,3.99575 -3.80244,-1.80785 -3.39013,2.49677 0.54435,-4.17499 z"
       transform="matrix(0.27506548,0.02681078,-0.02253874,0.32718016,-9.5724135,105.05874)"
       style="fill:#ffffff;fill-rule:evenodd"
       id="path8889" />
    <path
       d="m 100.33333,146.66667 4.13886,-0.77244 1.27511,-4.01259 2.01361,3.69759 4.21023,-0.0273 -2.89438,3.05767 1.32696,3.99575 -3.80244,-1.80785 -3.39013,2.49677 0.54435,-4.17499 z"
       transform="matrix(0.27506548,0.02681078,-0.02253874,0.32718016,-6.424911,108.33739)"
       style="fill:#ffffff;fill-rule:evenodd"
       id="path8891" />
    <path
       d="m 100.33333,146.66667 4.13886,-0.77244 1.27511,-4.01259 2.01361,3.69759 4.21023,-0.0273 -2.89438,3.05767 1.32696,3.99575 -3.80244,-1.80785 -3.39013,2.49677 0.54435,-4.17499 z"
       transform="matrix(0.27506548,0.02681078,-0.02253874,0.32718016,10.361769,111.3177)"
       style="fill:#ffffff;fill-rule:evenodd"
       id="path8893" />
    <path
       d="m 100.33333,146.66667 4.13886,-0.77244 1.27511,-4.01259 2.01361,3.69759 4.21023,-0.0273 -2.89438,3.05767 1.32696,3.99575 -3.80244,-1.80785 -3.39013,2.49677 0.54435,-4.17499 z"
       transform="matrix(0.27506548,0.02681078,-0.02253874,0.32718016,-3.0151167,105.05874)"
       style="fill:#ffffff;fill-rule:evenodd"
       id="path8895" />
    <path
       d="m 100.33333,146.66667 4.13886,-0.77244 1.27511,-4.01259 2.01361,3.69759 4.21023,-0.0273 -2.89438,3.05767 1.32696,3.99575 -3.80244,-1.80785 -3.39013,2.49677 0.54435,-4.17499 z"
       transform="matrix(0.27506548,0.02681078,-0.02253874,0.32718016,-3.0151167,92.540236)"
       style="fill:#ffffff;fill-rule:evenodd"
       id="path8897" />
    <path
       d="m 100.33333,146.66667 4.13886,-0.77244 1.27511,-4.01259 2.01361,3.69759 4.21023,-0.0273 -2.89438,3.05767 1.32696,3.99575 -3.80244,-1.80785 -3.39013,2.49677 0.54435,-4.17499 z"
       transform="matrix(0.27506548,0.02681078,-0.02253874,0.32718016,-3.0151167,98.79948)"
       style="fill:#ffffff;fill-rule:evenodd"
       id="path8899" />
    <path
       d="m 100.33333,146.66667 4.13886,-0.77244 1.27511,-4.01259 2.01361,3.69759 4.21023,-0.0273 -2.89438,3.05767 1.32696,3.99575 -3.80244,-1.80785 -3.39013,2.49677 0.54435,-4.17499 z"
       transform="matrix(0.27506548,0.02681078,-0.02253874,0.32718016,6.9519743,108.33739)"
       style="fill:#ffffff;fill-rule:evenodd"
       id="path8901" />
    <path
       d="m 100.33333,146.66667 4.13886,-0.77244 1.27511,-4.01259 2.01361,3.69759 4.21023,-0.0273 -2.89438,3.05767 1.32696,3.99575 -3.80244,-1.80785 -3.39013,2.49677 0.54435,-4.17499 z"
       transform="matrix(0.27506548,0.02681078,-0.02253874,0.32718016,0.39457265,108.33739)"
       style="fill:#ffffff;fill-rule:evenodd"
       id="path8903" />
    <path
       d="m 100.33333,146.66667 4.13886,-0.77244 1.27511,-4.01259 2.01361,3.69759 4.21023,-0.0273 -2.89438,3.05767 1.32696,3.99575 -3.80244,-1.80785 -3.39013,2.49677 0.54435,-4.17499 z"
       transform="matrix(0.27506548,0.02681078,-0.02253874,0.32718016,0.39457265,95.818893)"
       style="fill:#ffffff;fill-rule:evenodd"
       id="path8905" />
    <path
       d="m 100.33333,146.66667 4.13886,-0.77244 1.27511,-4.01259 2.01361,3.69759 4.21023,-0.0273 -2.89438,3.05767 1.32696,3.99575 -3.80244,-1.80785 -3.39013,2.49677 0.54435,-4.17499 z"
       transform="matrix(0.27506548,0.02681078,-0.02253874,0.32718016,0.39457265,102.07815)"
       style="fill:#ffffff;fill-rule:evenodd"
       id="path8907" />
    <path
       d="m 100.33333,146.66667 4.13886,-0.77244 1.27511,-4.01259 2.01361,3.69759 4.21023,-0.0273 -2.89438,3.05767 1.32696,3.99575 -3.80244,-1.80785 -3.39013,2.49677 0.54435,-4.17499 z"
       transform="matrix(0.27506548,0.02681078,-0.02253874,0.32718016,10.361769,105.05874)"
       style="fill:#ffffff;fill-rule:evenodd"
       id="path8909" />
    <path
       d="m 100.33333,146.66667 4.13886,-0.77244 1.27511,-4.01259 2.01361,3.69759 4.21023,-0.0273 -2.89438,3.05767 1.32696,3.99575 -3.80244,-1.80785 -3.39013,2.49677 0.54435,-4.17499 z"
       transform="matrix(0.27506548,0.02681078,-0.02253874,0.32718016,3.54218,105.05874)"
       style="fill:#ffffff;fill-rule:evenodd"
       id="path8911" />
    <path
       d="m 100.33333,146.66667 4.13886,-0.77244 1.27511,-4.01259 2.01361,3.69759 4.21023,-0.0273 -2.89438,3.05767 1.32696,3.99575 -3.80244,-1.80785 -3.39013,2.49677 0.54435,-4.17499 z"
       transform="matrix(0.27506548,0.02681078,-0.02253874,0.32718016,3.54218,92.540236)"
       style="fill:#ffffff;fill-rule:evenodd"
       id="path8913" />
    <path
       d="m 100.33333,146.66667 4.13886,-0.77244 1.27511,-4.01259 2.01361,3.69759 4.21023,-0.0273 -2.89438,3.05767 1.32696,3.99575 -3.80244,-1.80785 -3.39013,2.49677 0.54435,-4.17499 z"
       transform="matrix(0.27506548,0.02681078,-0.02253874,0.32718016,3.54218,98.79948)"
       style="fill:#ffffff;fill-rule:evenodd"
       id="path8915" />
    <path
       d="m 100.33333,146.66667 4.13886,-0.77244 1.27511,-4.01259 2.01361,3.69759 4.21023,-0.0273 -2.89438,3.05767 1.32696,3.99575 -3.80244,-1.80785 -3.39013,2.49677 0.54435,-4.17499 z"
       transform="matrix(0.27506548,0.02681078,-0.02253874,0.32718016,10.361769,92.540236)"
       style="fill:#ffffff;fill-rule:evenodd"
       id="path8917" />
    <path
       d="m 100.33333,146.66667 4.13886,-0.77244 1.27511,-4.01259 2.01361,3.69759 4.21023,-0.0273 -2.89438,3.05767 1.32696,3.99575 -3.80244,-1.80785 -3.39013,2.49677 0.54435,-4.17499 z"
       transform="matrix(0.27506548,0.02681078,-0.02253874,0.32718016,6.9519743,95.818893)"
       style="fill:#ffffff;fill-rule:evenodd"
       id="path8919" />
    <path
       d="m 100.33333,146.66667 4.13886,-0.77244 1.27511,-4.01259 2.01361,3.69759 4.21023,-0.0273 -2.89438,3.05767 1.32696,3.99575 -3.80244,-1.80785 -3.39013,2.49677 0.54435,-4.17499 z"
       transform="matrix(0.27506548,0.02681078,-0.02253874,0.32718016,10.361769,98.79948)"
       style="fill:#ffffff;fill-rule:evenodd"
       id="path8921" />
    <path
       d="m 100.33333,146.66667 4.13886,-0.77244 1.27511,-4.01259 2.01361,3.69759 4.21023,-0.0273 -2.89438,3.05767 1.32696,3.99575 -3.80244,-1.80785 -3.39013,2.49677 0.54435,-4.17499 z"
       transform="matrix(0.27506548,0.02681078,-0.02253874,0.32718016,6.9519743,102.07815)"
       style="fill:#ffffff;fill-rule:evenodd"
       id="path8923" />
  </g>
  <g
     transform="translate(0.5,-140.5)"
     id="layer7">
    <path
       d="M -0.44107089,200.09807 99.5,140.90042 99.26656,200.23219 Z"
       style="fill:#ffffff;stroke-width:0.27960446"
       id="path3835" />
  </g>
  <g
     transform="translate(0.5,-140.5)"
     id="layer8">
    <path
       d="m 57.527879,200.02356 -0.08381,-21.65077 41.612605,0.0474 0.05893,21.55598 z"
       style="fill:#00247d;stroke-width:0.27960446"
       id="path3839" />
    <path
       d="M 99.088026,140.76784 65.262867,161.12473 H 99.027699 Z"
       style="fill:#00247d;stroke-width:0.27960446"
       id="path3843" />
    <path
       d="m -0.32321528,200.02951 37.12479128,-21.96402 5.185772,0.0669 -0.117855,21.96402 z"
       style="fill:#00247d;stroke-width:0.27960446"
       id="path3845" />
  </g>
  <g
     transform="translate(0.5,-140.5)"
     id="layer9">
    <path
       d="m 99.308351,194.06236 -0.107757,5.82349 -8.688943,0.61415 -34.103189,-20.32857 0.389005,-2.83609 15.125848,0.46875 z"
       style="fill:#ffffff;stroke-width:0.27960446"
       id="path3847" />
    <path
       d="m 99.381793,140.5 -35.00285,21.16045 10.842884,0.26786 23.983706,-14.46425 z"
       style="fill:#ffffff;stroke-width:0.27960446"
       id="path3855" />
    <path
       d="m -0.44107089,199.82982 38.97394889,-22.75687 3.99523,0.17316 0.0143,4.32096 -30.591101,18.39626 z"
       style="fill:#ffffff;stroke-width:0.27960446"
       id="path3859" />
    <path
       d="m -0.5,199.89836 38.441496,-22.51244 4.045852,0.0163 -0.117855,2.33899 -33.9458139,20.22336 z"
       style="fill:#cf142b;stroke-width:0.27960446"
       id="path4355" />
    <path
       d="m 62.141593,177.73167 7.542728,0.26785 29.463245,17.94617 -0.117855,3.88402 z"
       style="fill:#cf142b;stroke-width:0.27960446"
       id="path4357" />
  </g>
  <g
     transform="translate(0.5,-140.5)"
     id="layer3">
    <path
       d="m 99.077534,175.12364 -57.413067,-0.0669 19.037406,-11.08038 38.383792,0.0866 z"
       style="fill:#cf142b;stroke-width:0.27960446"
       id="path3058" />
    <path
       style="fill:#cf142b;stroke-width:0.27960446"
       d="m 54.550867,199.82683 0.117858,-32.05036 -9.93037,5.70546 0.02022,26.46859 z"
       id="path3060" />
  </g>
  <g
     transform="translate(0.5,-140.5)"
     id="layer1">
    <rect
       x="-0.32321528"
       y="140.65007"
       width="99.408615"
       height="59.313889"
       style="fill:none;stroke:#000000;stroke-width:0.27960446"
       id="rect8764" />
  </g>
  <metadata
     id="metadata88">
    <rdf:RDF>
      <cc:Work>
        <dc:format>image/svg+xml</dc:format>
        <dc:type
           rdf:resource="http://purl.org/dc/dcmitype/StillImage" />
        <cc:license
           rdf:resource="http://creativecommons.org/publicdomain/zero/1.0/" />
        <dc:publisher>
          <cc:Agent
             rdf:about="http://openclipart.org/">
            <dc:title>Openclipart</dc:title>
          </cc:Agent>
        </dc:publisher>
        <dc:title></dc:title>
        <dc:date>2012-02-12T12:07:18</dc:date>
        <dc:description>English language flag.</dc:description>
        <dc:source>https://openclipart.org/detail/168121/usuk-flag-by-klainen</dc:source>
        <dc:creator>
          <cc:Agent>
            <dc:title>klainen</dc:title>
          </cc:Agent>
        </dc:creator>
        <dc:subject>
          <rdf:Bag>
            <rdf:li>English</rdf:li>
            <rdf:li>English language flag</rdf:li>
            <rdf:li>UK</rdf:li>
            <rdf:li>US</rdf:li>
            <rdf:li>flag</rdf:li>
          </rdf:Bag>
        </dc:subject>
      </cc:Work>
      <cc:License
         rdf:about="http://creativecommons.org/publicdomain/zero/1.0/">
        <cc:permits
           rdf:resource="http://creativecommons.org/ns#Reproduction" />
        <cc:permits
           rdf:resource="http://creativecommons.org/ns#Distribution" />
        <cc:permits
           rdf:resource="http://creativecommons.org/ns#DerivativeWorks" />
      </cc:License>
    </rdf:RDF>
  </metadata>
</svg>
