<?xml version="1.0" encoding="UTF-8" standalone="no"?>
<svg
   xmlns:dc="http://purl.org/dc/elements/1.1/"
   xmlns:cc="http://creativecommons.org/ns#"
   xmlns:rdf="http://www.w3.org/1999/02/22-rdf-syntax-ns#"
   xmlns:svg="http://www.w3.org/2000/svg"
   xmlns="http://www.w3.org/2000/svg"
   style="clip-rule:evenodd;fill-rule:evenodd;image-rendering:optimizeQuality;shape-rendering:geometricPrecision;text-rendering:geometricPrecision"
   id="svg4"
   version="1.1"
   viewBox="0 0 500 500"
   height="50"
   width="50">
  <metadata
     id="metadata10">
    <rdf:RDF>
      <cc:Work
         rdf:about="">
        <dc:format>image/svg+xml</dc:format>
        <dc:type
           rdf:resource="http://purl.org/dc/dcmitype/StillImage" />
        <dc:title></dc:title>
      </cc:Work>
    </rdf:RDF>
  </metadata>
  <defs
     id="defs8" />
  <path
     style="stroke-width:0.79103005"
     id="path2"
     d="M 249.98594,0.08650337 C 111.94556,0.08650337 0,114.83745 0,256.3793 c 0,113.24758 71.622095,209.286 170.95461,243.1917 12.50289,2.37402 17.09811,-5.57219 17.09811,-12.3458 0,-6.11123 -0.24921,-26.29911 -0.35077,-47.69803 -69.55495,15.50555 -84.21717,-30.25339 -84.21717,-30.25339 -11.368538,-29.62945 -27.756512,-37.50917 -27.756512,-37.50917 -22.680825,-15.92204 1.725748,-15.57203 1.725748,-15.57203 25.097964,1.79814 38.311784,26.39443 38.311784,26.39443 22.31208,39.18396 58.50124,27.84093 72.75723,21.3036 2.25152,-16.56439 8.71077,-27.87858 15.87079,-34.28296 -55.5302,-6.46123 -113.901767,-28.44644 -113.901767,-126.66184 0,-27.97389 9.781067,-50.84815 25.753427,-68.78537 -2.60152,-6.47006 -11.16464,-32.52328 2.40855,-67.81944 0,0 20.99179,-6.896158 68.77136,26.27109 19.93088,-5.66671 41.31016,-8.52369 62.54258,-8.6182 21.2496,0.0945 42.66639,2.94188 62.62539,8.6182 47.71473,-33.148025 68.68777,-26.27109 68.68777,-26.27109 13.59193,35.30577 5.06631,61.37742 2.46402,67.82024 16.02782,17.93642 25.72608,40.81068 25.72608,68.78457 0,98.44206 -58.50125,120.08607 -114.15177,126.43438 8.96937,7.9462 16.97859,23.54625 16.97859,47.44253 0,34.27414 -0.28593,61.89721 -0.28593,70.32639 0,6.82086 4.50304,14.79591 17.18093,12.29775 C 428.46931,465.52353 500,369.4739 500,256.2936 500,114.77018 388.07319,1.0678969e-6 250.00469,1.0678969e-6 L 249.98669,0.08570207 Z" />
</svg>
